<?xml version="1.0" encoding="UTF-8"?>
<svg id="Livello_1" data-name="Livello 1" xmlns="http://www.w3.org/2000/svg" viewBox="0 0 1080 1080">
  <defs>
    <style>
      .cls-1 {
        fill: #fff;
      }
    </style>
  </defs>
  <g>
    <path class="cls-1" d="M443.99,658.96c49.39-7.84,85.4-28.26,119.98-64.73l40.5,111.68c-24.04,18.37-49.81,33.49-78.19,43.97-46.25,17.08-94.7,23.36-143.9,20.63-71.28-3.96-137.69-26.5-193.41-71.21-42.06-33.76-75.33-76-97.83-125.38-30.16-66.19-42.3-140.18-35.58-212.75,8.97-96.8,52.27-187.63,122.79-254.32C277.08,13.48,426.1-17.6,553.77,30.43c37.2,14,71.07,34.37,101.99,58.87,7.19,5.7,13.59,11.01,19.18,18.11,11.4,14.48,15.65,32.21,10.31,51.05-4.22,14.87-15.72,28.61-31.96,35.65-17.96,7.79-38.44,6.34-55.68-3.47l-37.06-25.95c-30.41-21.29-64.03-37.13-101-42.73-60.04-9.1-120.54,7.9-168.68,44.53-47.57,36.19-81.8,87.13-98.01,144.89-28.29,100.78-7.63,220.19,70.95,292.95,48.46,44.87,114.31,65.07,180.17,54.62h.01Z"/>
    <path class="cls-1" d="M368.37,470.63l2.38-24.75c2.9-30.22,23.54-60.78,52.42-72.76,12.17-5.05,24.76-8.57,38.26-8.59l131.94-.15c31.01,2.87,61.87,21.5,71.97,52.04l68.18,206.08,152.01-476.61c7.48-23.44,20.19-43.74,38.76-59.62,14.3-11.11,30.54-20.36,49.1-21.59l52.87-.43-28.21,87.96-106.86,325.88-82.45,247.17c-10.35,28.41-35.43,45.21-65.43,45.41l-69.79.45-86.63-246.13-18.84-54.37h-199.68Z"/>
  </g>
  <g>
    <path class="cls-1" d="M561.79,1026.68l-1.06-93.95,29.83-.47.64,87.4c.1,13.99,10.81,24.08,24.21,24.56,8.19.29,16.08-.92,22.2-6.59,5.05-4.67,7.74-11.85,7.71-19.07l-.38-87.1,29.73-.28.47,84.34c.95,22.38-9.2,43.02-30.32,50.54-16.6,5.91-34.1,6.56-50.92,1.23-17.95-5.69-31.89-20.47-32.11-40.59v-.02Z"/>
    <path class="cls-1" d="M1035.73,1065.86c-17.21,6.74-36.21,7.06-53.25,1.18-18-6.22-29.86-21.85-29.81-40.96l29.17-.45c.64,8.82,5.18,15.68,13.43,18.41,14.1,4.65,32.41,1.01,35.38-11.51,2.92-12.32-9.72-17.12-22.86-19.88-19.71-4.15-43.21-8.14-49.29-27.95-6.19-20.15,4.4-40.99,23.94-48.95,15.47-6.3,32.41-6.2,48.26-1.37,16.15,5.83,27.01,18.98,28.17,37.32l-28.56.5c-.73-7.58-4.86-12.42-11.35-14.98-8.49-2.33-17.95-2.13-25.54,2.54-4.41,2.71-6.81,7.57-6.39,12.31s4.08,9.58,9.31,10.89l20.71,5.19c21.45,5.38,42.9,12.05,44.2,37.8.89,17.62-8.38,33.18-25.53,39.9h.01Z"/>
    <path class="cls-1" d="M777.26,1039.77c6.51-4.48,9.96-11.32,12.07-19.02l29.5-.37-3.68,15.17c-10.36,30.07-42.3,40.5-72.37,34.09-19.88-4.24-35.17-17.85-42.21-37.1-13.13-35.92-2.72-82.22,34.48-97.05,14.9-5.94,31.11-6.4,46.3-1.76,20.88,6.38,35.46,24.29,36.57,46.13l-29.76.31c-2.19-14.29-12.85-22.83-26.74-22.99s-26.68,7.05-31.91,20.95c-8.34,22.14-4.88,56.37,17.98,64.71,10.58,3.86,21.31,2.74,29.78-3.07h-.01Z"/>
    <polygon class="cls-1" points="901.42 1069.4 871.5 1069.7 870.79 957.56 830.25 958.11 830.12 933.81 940.87 932.37 941.27 956.72 900.39 957.29 901.42 1069.4"/>
    <path class="cls-1" d="M230.29,1014.86c22.36-11.57,27.53-38.99,17.78-61.38-7.31-13.61-20.78-22.51-36.83-22.35l-64.98.65.75,139.15,30.01-.56-.29-49.77,22.61-.11,24.75,49.21,34.84-.93-28.65-53.91h0ZM203.57,995.22l-27.08.68-.19-39.5,28.07-.08c9.38-.03,16.81,7.42,16.98,17.15,1.83,11.9-6.35,21.47-17.78,21.75h0Z"/>
    <path class="cls-1" d="M536.13,971.39c-8.03-23.23-27.86-39.73-52.8-39.54l-61.04.47,1.23,137.89,58.67-1.52c25.49-1.64,46.12-17.07,54.23-41.52,5.62-18.8,5.56-37.7-.29-55.78h0ZM507.34,1020.2c-4.57,13.31-15.07,22.32-28.76,22.72l-25.19.73-.8-86.47,25.85-.13c13.12-.07,23.41,7.63,27.99,19.94,4.67,13.73,4.91,28.69.9,43.22h.01Z"/>
    <path class="cls-1" d="M397.16,972.15c-8.31-25.51-30.26-41.03-56.72-41.97-31.22-1.11-58.41,18.08-65.92,48.72-4.18,17.08-3.68,34.86,1.91,51.56,8.38,25.01,30.67,41.14,56.97,41.47,11.42.14,22.39-.51,33.14-5.77,33.57-16.42,41.35-61.04,30.61-94h0ZM357.64,1038.39c-11.72,9.68-28.94,9.63-40.6.67-16.28-12.51-17.58-41.2-11.38-60.11,4.81-14.69,17.69-22.78,32.81-22.19,13.22.52,24,7.62,28.52,20.44,6.57,18.58,5.93,48.58-9.35,61.19h0Z"/>
    <path class="cls-1" d="M123.42,956.62c-7.11-15.85-22.33-25.75-40.06-25.49l-64.67.93.82,138.88,30.49-.27-.16-45.58,36.63-.92c21.7-1.89,37.87-17.54,40.35-38.58,1.42-10.06.33-19.58-3.4-28.97h0ZM77.86,999.03l-28.34,1.08-.44-43.71,27.67-.19c11.6-.08,19.87,8.73,19.62,20.34,1.02,11.23-6.28,22-18.52,22.47h0Z"/>
  </g>
</svg>