<?xml version="1.0" encoding="UTF-8"?>
<svg id="Livello_1" data-name="Livello 1" xmlns="http://www.w3.org/2000/svg" viewBox="0 0 1080 1080">
  <defs>
    <style>
      .cls-1 {
        fill: #fff;
      }

      .cls-2 {
        fill: #2d32bc;
        stroke: #000;
        stroke-miterlimit: 10;
      }
    </style>
  </defs>
  <rect class="cls-2" x="0" width="1080" height="1080" rx="200" ry="200"/>
  <g>
    <path class="cls-1" d="M457.76,770.7c42.3-6.71,73.14-24.2,102.76-55.44l34.69,95.65c-20.59,15.73-42.66,28.68-66.97,37.66-39.61,14.63-81.11,20.01-123.25,17.67-61.05-3.39-117.93-22.7-165.65-60.99-36.02-28.91-64.52-65.09-83.79-107.38-25.83-56.69-36.23-120.06-30.47-182.21,7.68-82.91,44.77-160.7,105.17-217.82,84.56-79.97,212.19-106.59,321.54-65.45,31.86,11.99,60.87,29.44,87.35,50.42,6.16,4.88,11.64,9.43,16.43,15.51,9.76,12.4,13.4,27.59,8.83,43.72-3.61,12.74-13.46,24.5-27.37,30.53-15.38,6.67-32.92,5.43-47.69-2.97l-31.74-22.23c-26.05-18.23-54.84-31.8-86.5-36.6-51.42-7.79-103.24,6.77-144.47,38.14-40.74,31-70.06,74.62-83.94,124.09-24.23,86.32-6.53,188.59,60.77,250.9,41.5,38.43,97.9,55.73,154.31,46.78h0Z"/>
    <path class="cls-1" d="M393,609.4l2.04-21.2c2.48-25.88,20.16-52.06,44.9-62.32,10.42-4.33,21.21-7.34,32.77-7.36l113-.13c26.56,2.46,52.99,18.41,61.64,44.57l58.39,176.5,130.19-408.2c6.41-20.08,17.29-37.46,33.2-51.06,12.25-9.52,26.16-17.44,42.05-18.49l45.28-.37-24.16,75.34-91.52,279.11-70.62,211.69c-8.86,24.33-30.34,38.72-56.04,38.89l-59.77.39-74.2-210.8-16.14-46.57h-171.02Z"/>
  </g>
</svg>